<svg width="20" height="20" viewBox="0 0 20 20" fill="none" xmlns="http://www.w3.org/2000/svg">
<path fill-rule="evenodd" clip-rule="evenodd" d="M6.221 0.888313C7.19849 0.843313 7.51016 0.833313 10.0002 0.833313C12.4902 0.833313 12.8018 0.844146 13.7785 0.888313C14.7552 0.93248 15.4218 1.08831 16.0052 1.31415C16.616 1.54498 17.1702 1.90581 17.6285 2.37248C18.0952 2.82998 18.4552 3.38331 18.6852 3.99498C18.9118 4.57831 19.0668 5.24498 19.1118 6.21998C19.1568 7.19915 19.1668 7.51081 19.1668 9.99998C19.1668 12.49 19.156 12.8016 19.1118 13.7791C19.0677 14.7541 18.9118 15.4208 18.6852 16.0041C18.4552 16.6159 18.0946 17.1701 17.6285 17.6283C17.1702 18.095 16.616 18.455 16.0052 18.685C15.4218 18.9116 14.7552 19.0666 13.7802 19.1116C12.8018 19.1566 12.4902 19.1666 10.0002 19.1666C7.51016 19.1666 7.19849 19.1558 6.221 19.1116C5.246 19.0675 4.57933 18.9116 3.996 18.685C3.38426 18.4549 2.83001 18.0944 2.37183 17.6283C1.90548 17.1705 1.54459 16.6165 1.31433 16.005C1.0885 15.4216 0.933496 14.755 0.888496 13.78C0.843496 12.8008 0.833496 12.4891 0.833496 9.99998C0.833496 7.50998 0.844329 7.19831 0.888496 6.22165C0.932663 5.24498 1.0885 4.57831 1.31433 3.99498C1.54493 3.38338 1.90609 2.82941 2.37266 2.37165C2.8302 1.9054 3.38389 1.54452 3.99516 1.31415C4.5785 1.08831 5.24516 0.933313 6.22016 0.888313H6.221ZM13.7043 2.53831C12.7377 2.49415 12.4477 2.48498 10.0002 2.48498C7.55266 2.48498 7.26266 2.49415 6.296 2.53831C5.40183 2.57915 4.91683 2.72831 4.5935 2.85415C4.166 3.02081 3.86016 3.21831 3.53933 3.53915C3.2352 3.83502 3.00115 4.19521 2.85433 4.59331C2.7285 4.91665 2.57933 5.40165 2.5385 6.29581C2.49433 7.26248 2.48516 7.55248 2.48516 9.99998C2.48516 12.4475 2.49433 12.7375 2.5385 13.7041C2.57933 14.5983 2.7285 15.0833 2.85433 15.4066C3.001 15.8041 3.23516 16.165 3.53933 16.4608C3.83516 16.765 4.196 16.9991 4.5935 17.1458C4.91683 17.2716 5.40183 17.4208 6.296 17.4616C7.26266 17.5058 7.55183 17.515 10.0002 17.515C12.4485 17.515 12.7377 17.5058 13.7043 17.4616C14.5985 17.4208 15.0835 17.2716 15.4068 17.1458C15.8343 16.9791 16.1402 16.7816 16.461 16.4608C16.7652 16.165 16.9993 15.8041 17.146 15.4066C17.2718 15.0833 17.421 14.5983 17.4618 13.7041C17.506 12.7375 17.5152 12.4475 17.5152 9.99998C17.5152 7.55248 17.506 7.26248 17.4618 6.29581C17.421 5.40165 17.2718 4.91665 17.146 4.59331C16.9793 4.16581 16.7818 3.85998 16.461 3.53915C16.1651 3.23504 15.8049 3.00099 15.4068 2.85415C15.0835 2.72831 14.5985 2.57915 13.7043 2.53831ZM8.82933 12.8258C9.48321 13.098 10.2113 13.1347 10.8893 12.9297C11.5672 12.7248 12.153 12.2907 12.5465 11.7018C12.94 11.113 13.1169 10.4057 13.0469 9.7009C12.9769 8.99609 12.6643 8.33746 12.1627 7.83748C11.8429 7.51788 11.4562 7.27316 11.0304 7.12093C10.6047 6.96871 10.1505 6.91278 9.70057 6.95716C9.25063 7.00154 8.81612 7.14513 8.42833 7.37759C8.04054 7.61005 7.70912 7.9256 7.45791 8.30152C7.20671 8.67744 7.04199 9.10439 6.97559 9.55161C6.9092 9.99884 6.94279 10.4552 7.07394 10.8879C7.2051 11.3206 7.43056 11.7188 7.7341 12.0539C8.03763 12.389 8.41168 12.6526 8.82933 12.8258ZM6.6685 6.66831C7.10602 6.23079 7.62543 5.88373 8.19708 5.64695C8.76872 5.41016 9.38141 5.28829 10.0002 5.28829C10.6189 5.28829 11.2316 5.41016 11.8032 5.64695C12.3749 5.88373 12.8943 6.23079 13.3318 6.66831C13.7693 7.10583 14.1164 7.62525 14.3532 8.19689C14.59 8.76854 14.7118 9.38123 14.7118 9.99998C14.7118 10.6187 14.59 11.2314 14.3532 11.8031C14.1164 12.3747 13.7693 12.8941 13.3318 13.3316C12.4482 14.2153 11.2498 14.7117 10.0002 14.7117C8.75054 14.7117 7.55211 14.2153 6.6685 13.3316C5.78488 12.448 5.28847 11.2496 5.28847 9.99998C5.28847 8.75036 5.78488 7.55192 6.6685 6.66831ZM15.7568 5.98998C15.8652 5.8877 15.952 5.76471 16.0121 5.62829C16.0721 5.49187 16.1042 5.34479 16.1063 5.19575C16.1085 5.04672 16.0808 4.89877 16.0247 4.76065C15.9687 4.62254 15.8855 4.49707 15.7801 4.39168C15.6747 4.28629 15.5493 4.20311 15.4112 4.14708C15.273 4.09104 15.1251 4.06329 14.9761 4.06546C14.827 4.06764 14.6799 4.09969 14.5435 4.15973C14.4071 4.21976 14.2841 4.30656 14.1818 4.41498C13.9829 4.62584 13.874 4.90591 13.8782 5.19575C13.8825 5.48559 13.9995 5.76238 14.2045 5.96735C14.4094 6.17232 14.6862 6.28934 14.9761 6.29356C15.2659 6.29779 15.546 6.18889 15.7568 5.98998Z" fill="#336CDA"/>
</svg>
