<svg width="72" height="72" viewBox="0 0 72 72" fill="none" xmlns="http://www.w3.org/2000/svg">
<path d="M29.2502 51.75V66.375C29.2451 66.8196 29.329 67.2608 29.4968 67.6726C29.6646 68.0843 29.913 68.4584 30.2274 68.7728C30.5418 69.0872 30.9159 69.3357 31.3277 69.5035C31.7394 69.6713 32.1806 69.7551 32.6252 69.75V69.75C33.0698 69.7551 33.511 69.6713 33.9228 69.5035C34.3345 69.3357 34.7086 69.0872 35.023 68.7728C35.3375 68.4584 35.5859 68.0843 35.7537 67.6726C35.9215 67.2608 36.0053 66.8196 36.0002 66.375" stroke="#0E243A" stroke-width="2" stroke-miterlimit="10" stroke-linecap="round"/>
<path d="M25.735 38.5312C25.6134 38.959 25.4075 39.3581 25.1294 39.7052C24.8514 40.0522 24.5067 40.3402 24.1158 40.5522C23.7249 40.7642 23.2955 40.8959 22.853 40.9396C22.4104 40.9832 21.9636 40.938 21.5387 40.8066C21.111 40.685 20.7119 40.4791 20.3649 40.201C20.0179 39.9229 19.73 39.5782 19.5181 39.1873C19.3063 38.7963 19.1747 38.3669 19.1312 37.9244C19.0877 37.4818 19.1332 37.0351 19.2648 36.6103L22.7805 24.7584C23.1681 23.4555 23.9664 22.3127 25.0563 21.5003C26.1462 20.6879 27.4694 20.2493 28.8287 20.25H43.1725C44.532 20.2498 45.8552 20.6889 46.9448 21.5018C48.0345 22.3148 48.8323 23.458 49.2194 24.7613L52.735 36.6131C52.8667 37.0379 52.9121 37.4846 52.8686 37.9272C52.8251 38.3697 52.6936 38.7991 52.4817 39.1901C52.2698 39.5811 51.9819 39.9257 51.6349 40.2038C51.2879 40.4819 50.8888 40.6878 50.4611 40.8094V40.8094C50.0366 40.9395 49.5904 40.9836 49.1487 40.9391C48.7069 40.8946 48.2785 40.7624 47.8885 40.5502C47.4985 40.3381 47.1548 40.0502 46.8774 39.7035C46.6001 39.3569 46.3947 38.9583 46.2733 38.5312M36.0006 51.75V66.375C35.9955 66.8196 36.0794 67.2608 36.2472 67.6726C36.415 68.0843 36.6634 68.4584 36.9778 68.7728C37.2922 69.0872 37.6663 69.3357 38.0781 69.5035C38.4898 69.6713 38.931 69.7551 39.3756 69.75C39.8202 69.7551 40.2614 69.6713 40.6732 69.5035C41.0849 69.3357 41.459 69.0872 41.7734 68.7728C42.0879 68.4584 42.3363 68.0843 42.5041 67.6726C42.6719 67.2608 42.7557 66.8196 42.7506 66.375V51.75H36.0006Z" stroke="#0E243A" stroke-width="2" stroke-miterlimit="10" stroke-linecap="round"/>
<path d="M36 13.5C39.1066 13.5 41.625 10.9816 41.625 7.875C41.625 4.7684 39.1066 2.25 36 2.25C32.8934 2.25 30.375 4.7684 30.375 7.875C30.375 10.9816 32.8934 13.5 36 13.5Z" stroke="#0E243A" stroke-width="2" stroke-miterlimit="10" stroke-linecap="round"/>
<path d="M29.25 27L22.5 49.5H49.5L42.75 27" stroke="#0E243A" stroke-width="2" stroke-linecap="round" stroke-linejoin="round"/>
</svg>
