<svg width="495" height="159" viewBox="0 0 495 159" fill="none" xmlns="http://www.w3.org/2000/svg">
<path d="M56.622 122.243L18.9767 157.461C18.6061 157.807 18.1177 158 17.6103 158H492C493.105 158 494 157.105 494 156V136.732C494 135.628 493.105 134.732 492 134.732H481.277C480.264 134.732 479.41 133.974 479.291 132.967L463.981 3.69932C463.747 1.72232 461.083 1.26411 460.201 3.04928L429.775 64.6872C429.164 65.925 427.513 66.1864 426.55 65.1978L405.324 43.4156C404.401 42.4686 402.83 42.6617 402.164 43.804L377.852 85.5045C377.186 86.6468 375.615 86.84 374.692 85.8929L352.737 63.3628C352.028 62.6348 350.885 62.5547 350.081 63.1766L311.309 93.1674C311.138 93.2998 310.947 93.4035 310.742 93.4746L297.57 98.0532L276.687 104.807C276.488 104.872 276.28 104.904 276.071 104.904H226.752C226.465 104.904 226.181 104.842 225.92 104.723L202.152 93.8485C201.501 93.5508 200.741 93.6234 200.158 94.0389L173.225 113.248C172.548 113.73 171.643 113.744 170.952 113.282L150.187 99.3984C149.429 98.8918 148.425 98.9616 147.744 99.5681L126.75 118.284C126.12 118.846 125.205 118.951 124.464 118.548L75.9122 92.1443C74.9514 91.6218 73.7492 91.9679 73.2133 92.9212L56.9991 121.763C56.8987 121.941 56.7716 122.103 56.622 122.243Z" fill="url(#paint0_linear_172_2186)"/>
<path d="M1 158H17.6189C18.1212 158 18.605 157.811 18.9744 157.471L56.5779 122.811C56.7562 122.647 56.9032 122.451 57.0116 122.234L72.5448 91.1387C73.0618 90.1037 74.3463 89.722 75.3446 90.3065L124.454 119.063C125.198 119.498 126.137 119.409 126.785 118.84L147.754 100.422C148.431 99.8273 149.422 99.7587 150.174 100.254L170.963 113.949C171.649 114.401 172.542 114.388 173.214 113.916L200.167 94.9761C200.745 94.5699 201.495 94.4988 202.139 94.7892L225.924 105.511C226.183 105.627 226.463 105.688 226.746 105.688H251.352H276.067C276.279 105.688 276.489 105.654 276.69 105.588L310.705 94.4342C310.934 94.3592 311.147 94.2435 311.335 94.0926L350.07 62.9558C350.876 62.3081 352.042 62.3812 352.761 63.1244L376.1 87.2611C377.04 88.2339 378.655 88.0112 379.298 86.8201L402.562 43.683C403.268 42.3733 405.106 42.266 405.96 43.4847L425.253 71.0222C426.15 72.3014 428.101 72.1054 428.725 70.6734L458.382 2.60807C459.192 0.749347 461.935 1.13663 462.199 3.14692L479.272 133.336C479.402 134.331 480.251 135.075 481.255 135.075H494" stroke="#2F80ED" stroke-width="2" stroke-linecap="round" stroke-linejoin="round"/>
<defs>
<linearGradient id="paint0_linear_172_2186" x1="250.4" y1="-297.66" x2="247.218" y2="157.998" gradientUnits="userSpaceOnUse">
<stop stop-color="#2F80ED"/>
<stop offset="1" stop-color="#82B3F4" stop-opacity="0.24"/>
</linearGradient>
</defs>
</svg>
