<svg width="329" height="360" viewBox="0 0 329 360" fill="none" xmlns="http://www.w3.org/2000/svg">
<g opacity="0.25">
<g opacity="0.2443">
<path opacity="0.2443" d="M92.8797 149.616L124.056 125.136L94.3917 117.144L92.8797 149.616ZM122.616 125.424L93.5277 148.248L94.9677 117.936L122.616 125.424Z" fill="#0E243A"/>
</g>
<g opacity="0.5038">
<path opacity="0.5038" d="M48.8877 71.3521L43.5597 21.1681L43.1277 21.6001L2.51971 58.5361L48.8877 71.3521ZM43.0557 22.4641L48.1677 70.4881L3.74369 58.1761L43.0557 22.4641Z" fill="#0E243A"/>
</g>
<g opacity="0.8777">
<path opacity="0.8777" d="M2.80791 58.968L43.8479 21.744L0.0719147 0.144043L0.0719147 26.64L2.80791 58.968ZM42.6959 21.888L3.31191 57.672L0.647907 26.568L0.647907 1.15204L42.6959 21.888Z" fill="#0E243A"/>
</g>
<g opacity="0.5761">
<path opacity="0.5761" d="M238.608 128.448L239.184 128.16L228.888 107.568L223.488 105.768L238.608 128.448ZM228.456 108.072L236.376 123.912L225 106.92L228.456 108.072Z" fill="#0E243A"/>
</g>
<g opacity="0.1811">
<path opacity="0.1811" d="M256.68 100.656L293.616 96.552L273.672 71.928L256.68 100.656ZM292.392 96.12L257.904 99.936L273.744 73.08L292.392 96.12Z" fill="#0E243A"/>
</g>
<g opacity="0.6975">
<path opacity="0.6975" d="M108.288 299.52L108.648 299.232L132.192 277.2L100.944 280.728L108.288 299.52ZM130.32 277.992L108.504 298.44L101.736 281.232L130.32 277.992Z" fill="#0E243A"/>
</g>
<g opacity="0.054651">
<path opacity="0.054651" d="M94.4636 118.008L106.632 112.104L106.488 111.816L82.0796 61.056L94.4636 118.008ZM105.768 111.816L94.8956 117.072L83.8796 66.24L105.768 111.816Z" fill="#0E243A"/>
</g>
<g opacity="0.341">
<path opacity="0.341" d="M178.992 67.68L156.168 25.848L152.496 54L152.712 54.072L178.992 67.68ZM156.528 27.864L177.48 66.168L153.144 53.64L156.528 27.864Z" fill="#0E243A"/>
</g>
<g opacity="0.4395">
<path opacity="0.4395" d="M156.096 27.288L188.208 12.528L149.256 5.76001L156.096 27.288ZM186.12 12.816L156.528 26.424L150.192 6.62401L186.12 12.816Z" fill="#0E243A"/>
</g>
<g opacity="0.8687">
<path opacity="0.8687" d="M273.456 72.9359L303.048 63.3599L302.832 62.9999L264.168 8.85596L273.456 72.9359ZM302.04 63.0719L273.96 72.1439L265.176 11.376L302.04 63.0719Z" fill="#0E243A"/>
</g>
<g opacity="0.6378">
<path opacity="0.6378" d="M109.44 300.744L101.376 280.296L97.7037 286.416L109.44 300.744ZM101.304 281.664L107.352 297.144L98.4957 286.272L101.304 281.664Z" fill="#0E243A"/>
</g>
<g opacity="0.6534">
<path opacity="0.6534" d="M23.4719 302.112L75.6719 290.016L16.4879 273.888L23.4719 302.112ZM73.0799 289.944L23.9039 301.32L17.2799 274.824L73.0799 289.944Z" fill="#0E243A"/>
</g>
<g opacity="0.4075">
<path opacity="0.4075" d="M85.2477 288.576L98.3517 286.632L102.168 280.224L85.2477 288.576ZM97.9197 286.056L89.1357 287.352L100.512 281.736L97.9197 286.056Z" fill="#0E243A"/>
</g>
<g opacity="0.1929">
<path opacity="0.1929" d="M117.72 221.04L159.048 187.704L114.624 177.048L117.72 221.04ZM157.68 188.064L118.224 219.816L115.272 177.912L157.68 188.064Z" fill="#0E243A"/>
</g>
<g opacity="0.1666">
<path opacity="0.1666" d="M6.98364 233.64L0.0716619 212.256L0.0716619 230.76L6.98364 233.64ZM0.719657 216.288L5.97565 232.56L0.719657 230.4L0.719657 216.288Z" fill="#0E243A"/>
</g>
<g opacity="0.3403">
<path opacity="0.3403" d="M186.984 13.032L230.112 10.512L209.808 0L181.368 0L186.984 13.032ZM227.736 10.008L187.344 12.384L182.304 0.648L209.736 0.648L227.736 10.008Z" fill="#0E243A"/>
</g>
<g opacity="0.9176">
<path opacity="0.9176" d="M229.536 108.432L214.056 88.2719L213.552 88.6319L223.992 106.632L229.536 108.432ZM216.576 92.5919L227.808 107.208L224.496 106.128L216.576 92.5919Z" fill="#0E243A"/>
</g>
<g opacity="0.1984">
<path opacity="0.1984" d="M214.272 89.136L208.008 59.688L177.336 66.816L214.272 89.136ZM207.504 60.408L213.336 87.84L178.992 67.032L207.504 60.408Z" fill="#0E243A"/>
</g>
<g opacity="0.2669">
<path opacity="0.2669" d="M177.696 67.9681L208.44 33.5521L186.912 12.0961L177.696 67.9681ZM207.576 33.5521L178.704 65.8801L187.344 13.3201L207.576 33.5521Z" fill="#0E243A"/>
</g>
<g opacity="0.7806">
<path opacity="0.7806" d="M83.4478 64.6558L75.5998 17.7118L42.6238 21.5998L43.0558 22.0318L83.4478 64.6558ZM75.0958 18.3598L82.5118 62.7118L43.9198 22.1038L75.0958 18.3598Z" fill="#0E243A"/>
</g>
<g opacity="0.9353">
<path opacity="0.9353" d="M75.384 19.008L81.072 0L68.112 0L75.384 19.008ZM80.208 0.648L75.312 17.064L69.048 0.648L80.208 0.648Z" fill="#0E243A"/>
</g>
<g opacity="0.4956">
<path opacity="0.4956" d="M20.8799 302.04L71.7119 301.824L74.8079 289.512L20.8799 302.04ZM71.2079 301.248L26.4959 301.392L73.9439 290.376L71.2079 301.248Z" fill="#0E243A"/>
</g>
<g opacity="0.6271">
<path opacity="0.6271" d="M252.216 159.768L239.04 127.8L215.424 145.152L252.216 159.768ZM238.752 128.808L251.064 158.688L216.72 145.008L238.752 128.808Z" fill="#0E243A"/>
</g>
<g opacity="0.7557">
<path opacity="0.7557" d="M216.144 146.016L224.568 106.056L196.488 106.416L216.144 146.016ZM223.848 106.704L215.928 144.072L197.568 106.992L223.848 106.704Z" fill="#0E243A"/>
</g>
<g opacity="0.3556">
<path opacity="0.3556" d="M106.2 112.752L133.992 53.7841L82.512 63.4321L106.2 112.752ZM132.912 54.6481L106.2 111.312L83.4479 63.8641L132.912 54.6481Z" fill="#0E243A"/>
</g>
<g opacity="0.058722">
<path opacity="0.058722" d="M163.152 116.064L153 53.496L132.912 53.928L163.152 116.064ZM152.496 54.144L161.856 111.96L133.92 54.576L152.496 54.144Z" fill="#0E243A"/>
</g>
<g opacity="0.5999">
<path opacity="0.5999" d="M114.84 178.272L133.056 149.256L111.312 162.216L114.84 178.272ZM131.112 151.128L115.128 176.616L112.032 162.432L131.112 151.128Z" fill="#0E243A"/>
</g>
<g opacity="0.7881">
<path opacity="0.7881" d="M114.336 177.912L147.528 170.856L132.12 149.616L114.336 177.912ZM146.448 170.424L115.632 176.976L132.12 150.696L146.448 170.424Z" fill="#0E243A"/>
</g>
<g opacity="0.397">
<path opacity="0.397" d="M109.44 164.016L132.408 150.408L132.984 141.336L109.44 164.016ZM131.76 150.048L113.76 160.704L132.192 142.92L131.76 150.048Z" fill="#0E243A"/>
</g>
<g opacity="0.1352">
<path opacity="0.1352" d="M167.544 163.152L132.264 141.552L131.76 150.408L167.544 163.152ZM132.84 142.632L162.072 160.56L132.408 149.976L132.84 142.632Z" fill="#0E243A"/>
</g>
<g opacity="0.302">
<path opacity="0.302" d="M0.0717511 250.992L3.23975 250.488L0.0717511 246.168L0.0717511 250.992ZM2.08774 250.056L0.719747 250.272L0.719747 248.112L2.08774 250.056Z" fill="#0E243A"/>
</g>
<g opacity="0.5835">
<path opacity="0.5835" d="M46.8719 360L55.3679 327.456L34.3439 339.624L46.8719 360ZM54.3599 328.752L46.6559 358.416L35.2079 339.768L54.3599 328.752Z" fill="#0E243A"/>
</g>
<g opacity="0.7245">
<path opacity="0.7245" d="M100.8 281.376L131.904 277.848L112.824 258.048L100.8 281.376ZM130.536 277.344L101.88 280.584L112.968 259.056L130.536 277.344Z" fill="#0E243A"/>
</g>
<g opacity="0.6437">
<path opacity="0.6437" d="M131.832 278.712L126.936 261.144L111.96 258.048L131.832 278.712ZM126.432 261.648L130.536 276.48L113.76 259.056L126.432 261.648Z" fill="#0E243A"/>
</g>
<g opacity="0.593">
<path opacity="0.593" d="M0.0717916 122.184L8.27979 120.6L0.0717916 108L0.0717916 122.184ZM7.19979 120.168L0.719788 121.392L0.719788 110.088L7.19979 120.168Z" fill="#0E243A"/>
</g>
<g opacity="0.4081">
<path opacity="0.4081" d="M5.54373 233.568L66.1677 221.76L37.8717 201.24L37.6557 201.456L5.54373 233.568ZM64.6557 221.4L7.48774 232.56L38.0157 202.032L64.6557 221.4Z" fill="#0E243A"/>
</g>
<g opacity="0.9412">
<path opacity="0.9412" d="M39.8159 168.408L52.9919 130.68L3.81594 145.872L39.8159 168.408ZM51.9839 131.688L39.4559 167.472L5.32795 146.088L51.9839 131.688Z" fill="#0E243A"/>
</g>
<g opacity="0.2546">
<path opacity="0.2546" d="M257.328 100.944L274.176 72.36L230.688 56.88L257.328 100.944ZM273.24 72.648L257.328 99.648L232.128 57.96L273.24 72.648Z" fill="#0E243A"/>
</g>
<g opacity="0.5939">
<path opacity="0.5939" d="M207.288 60.4079L232.056 57.6719L214.488 39.4559L207.288 60.4079ZM230.688 57.1679L208.224 59.6159L214.776 40.6079L230.688 57.1679Z" fill="#0E243A"/>
</g>
<g opacity="0.7674">
<path opacity="0.7674" d="M318.6 11.52L328.968 0L321.696 0L318.6 11.52ZM327.528 0.648L319.896 9.144L322.128 0.648L327.528 0.648Z" fill="#0E243A"/>
</g>
<g opacity="0.2255">
<path opacity="0.2255" d="M74.0158 290.304L87.6958 288.216L77.9038 268.92L74.0158 290.304ZM86.6878 287.712L74.7358 289.512L78.1198 270.792L86.6878 287.712Z" fill="#0E243A"/>
</g>
<g opacity="0.1251">
<path opacity="0.1251" d="M87.0477 288.432L102.096 281.016L77.3277 269.28L87.0477 288.432ZM100.584 281.016L87.3357 287.568L78.7677 270.576L100.584 281.016Z" fill="#0E243A"/>
</g>
<g opacity="0.2913">
<path opacity="0.2913" d="M101.448 281.376L113.472 257.976L77.1119 269.784L101.448 281.376ZM112.248 259.056L101.16 280.512L78.8399 269.928L112.248 259.056Z" fill="#0E243A"/>
</g>
<g opacity="0.7893">
<path opacity="0.7893" d="M78.1918 271.872L82.0798 214.848L65.0158 221.4L78.1918 271.872ZM81.4318 215.784L77.8318 267.912L65.8078 221.76L81.4318 215.784Z" fill="#0E243A"/>
</g>
<g opacity="0.7612">
<path opacity="0.7612" d="M30.2398 335.52L30.3118 334.872L-0.000228882 328.32V332.064L30.2398 335.52ZM0.719772 329.112L24.1198 334.152L0.719772 331.488V329.112Z" fill="#0E243A"/>
</g>
<g opacity="0.3186">
<path opacity="0.3186" d="M0.0718479 277.416L17.4238 274.608L2.51984 249.408L0.143829 263.088L0.0718479 277.416ZM16.4158 274.104L0.719843 276.624L0.719843 263.088L2.80784 251.136L16.4158 274.104Z" fill="#0E243A"/>
</g>
<g opacity="0.769">
<path opacity="0.769" d="M54.2878 328.464L85.8958 326.52L71.5678 300.96L54.2878 328.464ZM84.8158 325.872L55.4398 327.672L71.4238 302.112L84.8158 325.872Z" fill="#0E243A"/>
</g>
<g opacity="0.7914">
<path opacity="0.7914" d="M85.5357 326.376L110.16 299.808L108.36 298.512L85.1037 325.944L85.5357 326.376ZM109.224 299.952L95.0397 315.288L108.504 299.448L109.224 299.952Z" fill="#0E243A"/>
</g>
<g opacity="0.7235">
<path opacity="0.7235" d="M132.624 268.992L143.928 256.608L126.144 261.144L132.624 268.992ZM141.984 257.76L132.624 267.984L127.224 261.504L141.984 257.76Z" fill="#0E243A"/>
</g>
<g opacity="0.1424">
<path opacity="0.1424" d="M20.9517 86.2559L3.16765 57.8159L0.143644 61.8479L0.143644 70.0559L20.9517 86.2559ZM3.09565 58.8959L18.5036 83.5199L0.719656 69.6239L0.719656 61.9919L3.09565 58.8959Z" fill="#0E243A"/>
</g>
<g opacity="0.3504">
<path opacity="0.3504" d="M238.752 129.024L258.12 99.576L233.064 110.448L238.752 129.024ZM256.464 101.016L238.968 127.584L233.856 110.88L256.464 101.016Z" fill="#0E243A"/>
</g>
<g opacity="0.5955">
<path opacity="0.5955" d="M233.496 111.024L257.472 100.656L257.256 100.08L227.88 107.784L233.496 111.024ZM253.368 101.664L233.496 110.304L229.464 107.928L253.368 101.664Z" fill="#0E243A"/>
</g>
<g opacity="0.8014">
<path opacity="0.8014" d="M131.832 54.5761L153.432 54.1441L147.6 47.6641L131.832 54.5761ZM152.064 53.4961L135 53.8561L147.456 48.3841L152.064 53.4961Z" fill="#0E243A"/>
</g>
<g opacity="0.38">
<path opacity="0.38" d="M153 54.504L156.96 24.48L147.24 48.024L153 54.504ZM155.664 29.232L152.496 53.136L147.888 48.024L155.664 29.232Z" fill="#0E243A"/>
</g>
<g opacity="0.9285">
<path opacity="0.9285" d="M115.632 179.136L111.6 160.848L109.728 170.136L115.632 179.136ZM111.672 163.872L114.336 175.824L110.52 169.92L111.672 163.872Z" fill="#0E243A"/>
</g>
<g opacity="0.9356">
<path opacity="0.9356" d="M82.0078 215.496L115.344 177.48L110.088 169.416L81.5038 215.136L82.0078 215.496ZM114.552 177.48L84.0958 212.184L110.088 170.568L114.552 177.48Z" fill="#0E243A"/>
</g>
</g>
</svg>
