<svg width="1184" height="377" viewBox="0 0 1184 377" fill="none" xmlns="http://www.w3.org/2000/svg">
<rect width="1177" height="363" fill="#FF6B46" fill-opacity="0.1"/>
<g opacity="0.25">
<g opacity="0.2443">
<path opacity="0.2443" d="M93.8797 166.616L125.056 142.136L95.3917 134.144L93.8797 166.616ZM123.616 142.424L94.5277 165.248L95.9677 134.936L123.616 142.424Z" fill="#0E243A"/>
</g>
<g opacity="0.5038">
<path opacity="0.5038" d="M49.8877 88.3521L44.5597 38.1681L44.1277 38.6001L3.51971 75.5361L49.8877 88.3521ZM44.0557 39.4641L49.1677 87.4881L4.74369 75.1761L44.0557 39.4641Z" fill="#0E243A"/>
</g>
<g opacity="0.8777">
<path opacity="0.8777" d="M3.80791 75.968L44.8479 38.744L1.07191 17.144L1.07191 43.64L3.80791 75.968ZM43.6959 38.888L4.31191 74.672L1.64791 43.568L1.64791 18.152L43.6959 38.888Z" fill="#0E243A"/>
</g>
<g opacity="0.5761">
<path opacity="0.5761" d="M239.608 145.448L240.184 145.16L229.888 124.568L224.488 122.768L239.608 145.448ZM229.456 125.072L237.376 140.912L226 123.92L229.456 125.072Z" fill="#0E243A"/>
</g>
<g opacity="0.1811">
<path opacity="0.1811" d="M257.68 117.656L294.616 113.552L274.672 88.928L257.68 117.656ZM293.392 113.12L258.904 116.936L274.744 90.08L293.392 113.12Z" fill="#0E243A"/>
</g>
<g opacity="0.6975">
<path opacity="0.6975" d="M109.288 316.52L109.648 316.232L133.192 294.2L101.944 297.728L109.288 316.52ZM131.32 294.992L109.504 315.44L102.736 298.232L131.32 294.992Z" fill="#0E243A"/>
</g>
<g opacity="0.054651">
<path opacity="0.054651" d="M95.4636 135.008L107.632 129.104L107.488 128.816L83.0796 78.056L95.4636 135.008ZM106.768 128.816L95.8956 134.072L84.8796 83.24L106.768 128.816Z" fill="#0E243A"/>
</g>
<g opacity="0.341">
<path opacity="0.341" d="M179.992 84.68L157.168 42.848L153.496 71L153.712 71.072L179.992 84.68ZM157.528 44.864L178.48 83.168L154.144 70.64L157.528 44.864Z" fill="#0E243A"/>
</g>
<g opacity="0.4395">
<path opacity="0.4395" d="M157.096 44.288L189.208 29.528L150.256 22.76L157.096 44.288ZM187.12 29.816L157.528 43.424L151.192 23.624L187.12 29.816Z" fill="#0E243A"/>
</g>
<g opacity="0.8687">
<path opacity="0.8687" d="M274.456 89.936L304.048 80.36L303.832 80L265.168 25.856L274.456 89.936ZM303.04 80.072L274.96 89.144L266.176 28.376L303.04 80.072Z" fill="#0E243A"/>
</g>
<g opacity="0.6378">
<path opacity="0.6378" d="M110.44 317.744L102.376 297.296L98.7037 303.416L110.44 317.744ZM102.304 298.664L108.352 314.144L99.4957 303.272L102.304 298.664Z" fill="#0E243A"/>
</g>
<g opacity="0.6534">
<path opacity="0.6534" d="M24.4719 319.112L76.6719 307.016L17.4879 290.888L24.4719 319.112ZM74.0799 306.944L24.9039 318.32L18.2799 291.824L74.0799 306.944Z" fill="#0E243A"/>
</g>
<g opacity="0.4075">
<path opacity="0.4075" d="M86.2477 305.576L99.3517 303.632L103.168 297.224L86.2477 305.576ZM98.9197 303.056L90.1357 304.352L101.512 298.736L98.9197 303.056Z" fill="#0E243A"/>
</g>
<g opacity="0.1929">
<path opacity="0.1929" d="M118.72 238.04L160.048 204.704L115.624 194.048L118.72 238.04ZM158.68 205.064L119.224 236.816L116.272 194.912L158.68 205.064Z" fill="#0E243A"/>
</g>
<g opacity="0.1666">
<path opacity="0.1666" d="M7.98364 250.64L1.07166 229.256L1.07166 247.76L7.98364 250.64ZM1.71966 233.288L6.97565 249.56L1.71966 247.4L1.71966 233.288Z" fill="#0E243A"/>
</g>
<g opacity="0.3403">
<path opacity="0.3403" d="M187.984 30.032L231.112 27.512L210.808 17L182.368 17L187.984 30.032ZM228.736 27.008L188.344 29.384L183.304 17.648L210.736 17.648L228.736 27.008Z" fill="#0E243A"/>
</g>
<g opacity="0.9176">
<path opacity="0.9176" d="M230.536 125.432L215.056 105.272L214.552 105.632L224.992 123.632L230.536 125.432ZM217.576 109.592L228.808 124.208L225.496 123.128L217.576 109.592Z" fill="#0E243A"/>
</g>
<g opacity="0.1984">
<path opacity="0.1984" d="M215.272 106.136L209.008 76.688L178.336 83.816L215.272 106.136ZM208.504 77.408L214.336 104.84L179.992 84.032L208.504 77.408Z" fill="#0E243A"/>
</g>
<g opacity="0.2669">
<path opacity="0.2669" d="M178.696 84.968L209.44 50.552L187.912 29.096L178.696 84.968ZM208.576 50.552L179.704 82.88L188.344 30.32L208.576 50.552Z" fill="#0E243A"/>
</g>
<g opacity="0.7806">
<path opacity="0.7806" d="M84.4478 81.6558L76.5998 34.7118L43.6238 38.5998L44.0558 39.0318L84.4478 81.6558ZM76.0958 35.3598L83.5118 79.7118L44.9198 39.1038L76.0958 35.3598Z" fill="#0E243A"/>
</g>
<g opacity="0.9353">
<path opacity="0.9353" d="M76.384 36.008L82.072 17L69.112 17L76.384 36.008ZM81.208 17.648L76.312 34.064L70.048 17.648L81.208 17.648Z" fill="#0E243A"/>
</g>
<g opacity="0.4956">
<path opacity="0.4956" d="M21.8799 319.04L72.7119 318.824L75.8079 306.512L21.8799 319.04ZM72.2079 318.248L27.4959 318.392L74.9439 307.376L72.2079 318.248Z" fill="#0E243A"/>
</g>
<g opacity="0.6271">
<path opacity="0.6271" d="M253.216 176.768L240.04 144.8L216.424 162.152L253.216 176.768ZM239.752 145.808L252.064 175.688L217.72 162.008L239.752 145.808Z" fill="#0E243A"/>
</g>
<g opacity="0.7557">
<path opacity="0.7557" d="M217.144 163.016L225.568 123.056L197.488 123.416L217.144 163.016ZM224.848 123.704L216.928 161.072L198.568 123.992L224.848 123.704Z" fill="#0E243A"/>
</g>
<g opacity="0.3556">
<path opacity="0.3556" d="M107.2 129.752L134.992 70.784L83.512 80.432L107.2 129.752ZM133.912 71.648L107.2 128.312L84.4479 80.864L133.912 71.648Z" fill="#0E243A"/>
</g>
<g opacity="0.058722">
<path opacity="0.058722" d="M164.152 133.064L154 70.496L133.912 70.928L164.152 133.064ZM153.496 71.144L162.856 128.96L134.92 71.576L153.496 71.144Z" fill="#0E243A"/>
</g>
<g opacity="0.5999">
<path opacity="0.5999" d="M115.84 195.272L134.056 166.256L112.312 179.216L115.84 195.272ZM132.112 168.128L116.128 193.616L113.032 179.432L132.112 168.128Z" fill="#0E243A"/>
</g>
<g opacity="0.7881">
<path opacity="0.7881" d="M115.336 194.912L148.528 187.856L133.12 166.616L115.336 194.912ZM147.448 187.424L116.632 193.976L133.12 167.696L147.448 187.424Z" fill="#0E243A"/>
</g>
<g opacity="0.397">
<path opacity="0.397" d="M110.44 181.016L133.408 167.408L133.984 158.336L110.44 181.016ZM132.76 167.048L114.76 177.704L133.192 159.92L132.76 167.048Z" fill="#0E243A"/>
</g>
<g opacity="0.1352">
<path opacity="0.1352" d="M168.544 180.152L133.264 158.552L132.76 167.408L168.544 180.152ZM133.84 159.632L163.072 177.56L133.408 166.976L133.84 159.632Z" fill="#0E243A"/>
</g>
<g opacity="0.302">
<path opacity="0.302" d="M1.07175 267.992L4.23975 267.488L1.07175 263.168L1.07175 267.992ZM3.08774 267.056L1.71975 267.272L1.71975 265.112L3.08774 267.056Z" fill="#0E243A"/>
</g>
<g opacity="0.5835">
<path opacity="0.5835" d="M47.8719 377L56.3679 344.456L35.3439 356.624L47.8719 377ZM55.3599 345.752L47.6559 375.416L36.2079 356.768L55.3599 345.752Z" fill="#0E243A"/>
</g>
<g opacity="0.7245">
<path opacity="0.7245" d="M101.8 298.376L132.904 294.848L113.824 275.048L101.8 298.376ZM131.536 294.344L102.88 297.584L113.968 276.056L131.536 294.344Z" fill="#0E243A"/>
</g>
<g opacity="0.6437">
<path opacity="0.6437" d="M132.832 295.712L127.936 278.144L112.96 275.048L132.832 295.712ZM127.432 278.648L131.536 293.48L114.76 276.056L127.432 278.648Z" fill="#0E243A"/>
</g>
<g opacity="0.593">
<path opacity="0.593" d="M1.07179 139.184L9.27979 137.6L1.07179 125L1.07179 139.184ZM8.19979 137.168L1.71979 138.392L1.71979 127.088L8.19979 137.168Z" fill="#0E243A"/>
</g>
<g opacity="0.4081">
<path opacity="0.4081" d="M6.54373 250.568L67.1677 238.76L38.8717 218.24L38.6557 218.456L6.54373 250.568ZM65.6557 238.4L8.48774 249.56L39.0157 219.032L65.6557 238.4Z" fill="#0E243A"/>
</g>
<g opacity="0.9412">
<path opacity="0.9412" d="M40.8159 185.408L53.9919 147.68L4.81594 162.872L40.8159 185.408ZM52.9839 148.688L40.4559 184.472L6.32795 163.088L52.9839 148.688Z" fill="#0E243A"/>
</g>
<g opacity="0.2546">
<path opacity="0.2546" d="M258.328 117.944L275.176 89.36L231.688 73.88L258.328 117.944ZM274.24 89.648L258.328 116.648L233.128 74.96L274.24 89.648Z" fill="#0E243A"/>
</g>
<g opacity="0.5939">
<path opacity="0.5939" d="M208.288 77.4079L233.056 74.6719L215.488 56.4559L208.288 77.4079ZM231.688 74.1679L209.224 76.6159L215.776 57.6079L231.688 74.1679Z" fill="#0E243A"/>
</g>
<g opacity="0.7674">
<path opacity="0.7674" d="M319.6 28.52L329.968 17L322.696 17L319.6 28.52ZM328.528 17.648L320.896 26.144L323.128 17.648L328.528 17.648Z" fill="#0E243A"/>
</g>
<g opacity="0.2255">
<path opacity="0.2255" d="M75.0158 307.304L88.6958 305.216L78.9038 285.92L75.0158 307.304ZM87.6878 304.712L75.7358 306.512L79.1198 287.792L87.6878 304.712Z" fill="#0E243A"/>
</g>
<g opacity="0.1251">
<path opacity="0.1251" d="M88.0477 305.432L103.096 298.016L78.3277 286.28L88.0477 305.432ZM101.584 298.016L88.3357 304.568L79.7677 287.576L101.584 298.016Z" fill="#0E243A"/>
</g>
<g opacity="0.2913">
<path opacity="0.2913" d="M102.448 298.376L114.472 274.976L78.1119 286.784L102.448 298.376ZM113.248 276.056L102.16 297.512L79.8399 286.928L113.248 276.056Z" fill="#0E243A"/>
</g>
<g opacity="0.7893">
<path opacity="0.7893" d="M79.1918 288.872L83.0798 231.848L66.0158 238.4L79.1918 288.872ZM82.4318 232.784L78.8318 284.912L66.8078 238.76L82.4318 232.784Z" fill="#0E243A"/>
</g>
<g opacity="0.7612">
<path opacity="0.7612" d="M31.2398 352.52L31.3118 351.872L0.999771 345.32V349.064L31.2398 352.52ZM1.71977 346.112L25.1198 351.152L1.71977 348.488V346.112Z" fill="#0E243A"/>
</g>
<g opacity="0.3186">
<path opacity="0.3186" d="M1.07185 294.416L18.4238 291.608L3.51984 266.408L1.14383 280.088L1.07185 294.416ZM17.4158 291.104L1.71984 293.624L1.71984 280.088L3.80784 268.136L17.4158 291.104Z" fill="#0E243A"/>
</g>
<g opacity="0.769">
<path opacity="0.769" d="M55.2878 345.464L86.8958 343.52L72.5678 317.96L55.2878 345.464ZM85.8158 342.872L56.4398 344.672L72.4238 319.112L85.8158 342.872Z" fill="#0E243A"/>
</g>
<g opacity="0.7914">
<path opacity="0.7914" d="M86.5357 343.376L111.16 316.808L109.36 315.512L86.1037 342.944L86.5357 343.376ZM110.224 316.952L96.0397 332.288L109.504 316.448L110.224 316.952Z" fill="#0E243A"/>
</g>
<g opacity="0.7235">
<path opacity="0.7235" d="M133.624 285.992L144.928 273.608L127.144 278.144L133.624 285.992ZM142.984 274.76L133.624 284.984L128.224 278.504L142.984 274.76Z" fill="#0E243A"/>
</g>
<g opacity="0.1424">
<path opacity="0.1424" d="M21.9517 103.256L4.16765 74.8159L1.14364 78.8479L1.14364 87.0559L21.9517 103.256ZM4.09565 75.8959L19.5036 100.52L1.71966 86.6239L1.71966 78.9919L4.09565 75.8959Z" fill="#0E243A"/>
</g>
<g opacity="0.3504">
<path opacity="0.3504" d="M239.752 146.024L259.12 116.576L234.064 127.448L239.752 146.024ZM257.464 118.016L239.968 144.584L234.856 127.88L257.464 118.016Z" fill="#0E243A"/>
</g>
<g opacity="0.5955">
<path opacity="0.5955" d="M234.496 128.024L258.472 117.656L258.256 117.08L228.88 124.784L234.496 128.024ZM254.368 118.664L234.496 127.304L230.464 124.928L254.368 118.664Z" fill="#0E243A"/>
</g>
<g opacity="0.8014">
<path opacity="0.8014" d="M132.832 71.5761L154.432 71.1441L148.6 64.6641L132.832 71.5761ZM153.064 70.4961L136 70.8561L148.456 65.3841L153.064 70.4961Z" fill="#0E243A"/>
</g>
<g opacity="0.38">
<path opacity="0.38" d="M154 71.504L157.96 41.48L148.24 65.024L154 71.504ZM156.664 46.232L153.496 70.136L148.888 65.024L156.664 46.232Z" fill="#0E243A"/>
</g>
<g opacity="0.9285">
<path opacity="0.9285" d="M116.632 196.136L112.6 177.848L110.728 187.136L116.632 196.136ZM112.672 180.872L115.336 192.824L111.52 186.92L112.672 180.872Z" fill="#0E243A"/>
</g>
<g opacity="0.9356">
<path opacity="0.9356" d="M83.0078 232.496L116.344 194.48L111.088 186.416L82.5038 232.136L83.0078 232.496ZM115.552 194.48L85.0958 229.184L111.088 187.568L115.552 194.48Z" fill="#0E243A"/>
</g>
</g>
<g opacity="0.25">
<g opacity="0.2443">
<path opacity="0.2443" d="M947.88 156.616L979.056 132.136L949.392 124.144L947.88 156.616ZM977.616 132.424L948.528 155.248L949.968 124.936L977.616 132.424Z" fill="#0E243A"/>
</g>
<g opacity="0.5038">
<path opacity="0.5038" d="M903.888 78.3521L898.56 28.1681L898.128 28.6001L857.52 65.5361L903.888 78.3521ZM898.056 29.4641L903.168 77.4881L858.744 65.1761L898.056 29.4641Z" fill="#0E243A"/>
</g>
<g opacity="0.8777">
<path opacity="0.8777" d="M857.808 65.968L898.848 28.744L855.072 7.14404V33.64L857.808 65.968ZM897.696 28.888L858.312 64.672L855.648 33.568V8.15204L897.696 28.888Z" fill="#0E243A"/>
</g>
<g opacity="0.5761">
<path opacity="0.5761" d="M1093.61 135.448L1094.18 135.16L1083.89 114.568L1078.49 112.768L1093.61 135.448ZM1083.46 115.072L1091.38 130.912L1080 113.92L1083.46 115.072Z" fill="#0E243A"/>
</g>
<g opacity="0.1811">
<path opacity="0.1811" d="M1111.68 107.656L1148.62 103.552L1128.67 78.928L1111.68 107.656ZM1147.39 103.12L1112.9 106.936L1128.74 80.08L1147.39 103.12Z" fill="#0E243A"/>
</g>
<g opacity="0.6975">
<path opacity="0.6975" d="M963.288 306.52L963.648 306.232L987.192 284.2L955.944 287.728L963.288 306.52ZM985.32 284.992L963.504 305.44L956.736 288.232L985.32 284.992Z" fill="#0E243A"/>
</g>
<g opacity="0.054651">
<path opacity="0.054651" d="M949.464 125.008L961.632 119.104L961.488 118.816L937.08 68.056L949.464 125.008ZM960.768 118.816L949.896 124.072L938.88 73.24L960.768 118.816Z" fill="#0E243A"/>
</g>
<g opacity="0.341">
<path opacity="0.341" d="M1033.99 74.68L1011.17 32.848L1007.5 61L1007.71 61.072L1033.99 74.68ZM1011.53 34.864L1032.48 73.168L1008.14 60.64L1011.53 34.864Z" fill="#0E243A"/>
</g>
<g opacity="0.4395">
<path opacity="0.4395" d="M1011.1 34.288L1043.21 19.528L1004.26 12.76L1011.1 34.288ZM1041.12 19.816L1011.53 33.424L1005.19 13.624L1041.12 19.816Z" fill="#0E243A"/>
</g>
<g opacity="0.8687">
<path opacity="0.8687" d="M1128.46 79.936L1158.05 70.36L1157.83 70L1119.17 15.856L1128.46 79.936ZM1157.04 70.072L1128.96 79.144L1120.18 18.376L1157.04 70.072Z" fill="#0E243A"/>
</g>
<g opacity="0.6378">
<path opacity="0.6378" d="M964.44 307.744L956.376 287.296L952.704 293.416L964.44 307.744ZM956.304 288.664L962.352 304.144L953.496 293.272L956.304 288.664Z" fill="#0E243A"/>
</g>
<g opacity="0.6534">
<path opacity="0.6534" d="M878.472 309.112L930.672 297.016L871.488 280.888L878.472 309.112ZM928.08 296.944L878.904 308.32L872.28 281.824L928.08 296.944Z" fill="#0E243A"/>
</g>
<g opacity="0.4075">
<path opacity="0.4075" d="M940.248 295.576L953.352 293.632L957.168 287.224L940.248 295.576ZM952.92 293.056L944.136 294.352L955.512 288.736L952.92 293.056Z" fill="#0E243A"/>
</g>
<g opacity="0.1929">
<path opacity="0.1929" d="M972.72 228.04L1014.05 194.704L969.624 184.048L972.72 228.04ZM1012.68 195.064L973.224 226.816L970.272 184.912L1012.68 195.064Z" fill="#0E243A"/>
</g>
<g opacity="0.1666">
<path opacity="0.1666" d="M861.984 240.64L855.072 219.256V237.76L861.984 240.64ZM855.72 223.288L860.976 239.56L855.72 237.4V223.288Z" fill="#0E243A"/>
</g>
<g opacity="0.3403">
<path opacity="0.3403" d="M1041.98 20.032L1085.11 17.512L1064.81 7L1036.37 7L1041.98 20.032ZM1082.74 17.008L1042.34 19.384L1037.3 7.648L1064.74 7.648L1082.74 17.008Z" fill="#0E243A"/>
</g>
<g opacity="0.9176">
<path opacity="0.9176" d="M1084.54 115.432L1069.06 95.2719L1068.55 95.6319L1078.99 113.632L1084.54 115.432ZM1071.58 99.5919L1082.81 114.208L1079.5 113.128L1071.58 99.5919Z" fill="#0E243A"/>
</g>
<g opacity="0.1984">
<path opacity="0.1984" d="M1069.27 96.136L1063.01 66.688L1032.34 73.816L1069.27 96.136ZM1062.5 67.408L1068.34 94.84L1033.99 74.032L1062.5 67.408Z" fill="#0E243A"/>
</g>
<g opacity="0.2669">
<path opacity="0.2669" d="M1032.7 74.968L1063.44 40.552L1041.91 19.096L1032.7 74.968ZM1062.58 40.552L1033.7 72.88L1042.34 20.32L1062.58 40.552Z" fill="#0E243A"/>
</g>
<g opacity="0.7806">
<path opacity="0.7806" d="M938.448 71.6558L930.6 24.7118L897.624 28.5998L898.056 29.0318L938.448 71.6558ZM930.096 25.3598L937.512 69.7118L898.92 29.1038L930.096 25.3598Z" fill="#0E243A"/>
</g>
<g opacity="0.9353">
<path opacity="0.9353" d="M930.384 26.008L936.072 7L923.112 7L930.384 26.008ZM935.208 7.648L930.312 24.064L924.048 7.648L935.208 7.648Z" fill="#0E243A"/>
</g>
<g opacity="0.4956">
<path opacity="0.4956" d="M875.88 309.04L926.712 308.824L929.808 296.512L875.88 309.04ZM926.208 308.248L881.496 308.392L928.944 297.376L926.208 308.248Z" fill="#0E243A"/>
</g>
<g opacity="0.6271">
<path opacity="0.6271" d="M1107.22 166.768L1094.04 134.8L1070.42 152.152L1107.22 166.768ZM1093.75 135.808L1106.06 165.688L1071.72 152.008L1093.75 135.808Z" fill="#0E243A"/>
</g>
<g opacity="0.7557">
<path opacity="0.7557" d="M1071.14 153.016L1079.57 113.056L1051.49 113.416L1071.14 153.016ZM1078.85 113.704L1070.93 151.072L1052.57 113.992L1078.85 113.704Z" fill="#0E243A"/>
</g>
<g opacity="0.3556">
<path opacity="0.3556" d="M961.2 119.752L988.992 60.784L937.512 70.432L961.2 119.752ZM987.912 61.648L961.2 118.312L938.448 70.864L987.912 61.648Z" fill="#0E243A"/>
</g>
<g opacity="0.058722">
<path opacity="0.058722" d="M1018.15 123.064L1008 60.496L987.912 60.928L1018.15 123.064ZM1007.5 61.144L1016.86 118.96L988.92 61.576L1007.5 61.144Z" fill="#0E243A"/>
</g>
<g opacity="0.5999">
<path opacity="0.5999" d="M969.84 185.272L988.056 156.256L966.312 169.216L969.84 185.272ZM986.112 158.128L970.128 183.616L967.032 169.432L986.112 158.128Z" fill="#0E243A"/>
</g>
<g opacity="0.7881">
<path opacity="0.7881" d="M969.336 184.912L1002.53 177.856L987.12 156.616L969.336 184.912ZM1001.45 177.424L970.632 183.976L987.12 157.696L1001.45 177.424Z" fill="#0E243A"/>
</g>
<g opacity="0.397">
<path opacity="0.397" d="M964.44 171.016L987.408 157.408L987.984 148.336L964.44 171.016ZM986.76 157.048L968.76 167.704L987.192 149.92L986.76 157.048Z" fill="#0E243A"/>
</g>
<g opacity="0.1352">
<path opacity="0.1352" d="M1022.54 170.152L987.264 148.552L986.76 157.408L1022.54 170.152ZM987.84 149.632L1017.07 167.56L987.408 156.976L987.84 149.632Z" fill="#0E243A"/>
</g>
<g opacity="0.302">
<path opacity="0.302" d="M855.072 257.992L858.24 257.488L855.072 253.168V257.992ZM857.088 257.056L855.72 257.272V255.112L857.088 257.056Z" fill="#0E243A"/>
</g>
<g opacity="0.5835">
<path opacity="0.5835" d="M901.872 367L910.368 334.456L889.344 346.624L901.872 367ZM909.36 335.752L901.656 365.416L890.208 346.768L909.36 335.752Z" fill="#0E243A"/>
</g>
<g opacity="0.7245">
<path opacity="0.7245" d="M955.8 288.376L986.904 284.848L967.824 265.048L955.8 288.376ZM985.536 284.344L956.88 287.584L967.968 266.056L985.536 284.344Z" fill="#0E243A"/>
</g>
<g opacity="0.6437">
<path opacity="0.6437" d="M986.832 285.712L981.936 268.144L966.96 265.048L986.832 285.712ZM981.432 268.648L985.536 283.48L968.76 266.056L981.432 268.648Z" fill="#0E243A"/>
</g>
<g opacity="0.593">
<path opacity="0.593" d="M855.072 129.184L863.28 127.6L855.072 115V129.184ZM862.2 127.168L855.72 128.392V117.088L862.2 127.168Z" fill="#0E243A"/>
</g>
<g opacity="0.4081">
<path opacity="0.4081" d="M860.544 240.568L921.168 228.76L892.872 208.24L892.656 208.456L860.544 240.568ZM919.656 228.4L862.488 239.56L893.016 209.032L919.656 228.4Z" fill="#0E243A"/>
</g>
<g opacity="0.9412">
<path opacity="0.9412" d="M894.816 175.408L907.992 137.68L858.816 152.872L894.816 175.408ZM906.984 138.688L894.456 174.472L860.328 153.088L906.984 138.688Z" fill="#0E243A"/>
</g>
<g opacity="0.2546">
<path opacity="0.2546" d="M1112.33 107.944L1129.18 79.36L1085.69 63.88L1112.33 107.944ZM1128.24 79.648L1112.33 106.648L1087.13 64.96L1128.24 79.648Z" fill="#0E243A"/>
</g>
<g opacity="0.5939">
<path opacity="0.5939" d="M1062.29 67.4079L1087.06 64.6719L1069.49 46.4559L1062.29 67.4079ZM1085.69 64.1679L1063.22 66.6159L1069.78 47.6079L1085.69 64.1679Z" fill="#0E243A"/>
</g>
<g opacity="0.7674">
<path opacity="0.7674" d="M1173.6 18.52L1183.97 7L1176.7 7L1173.6 18.52ZM1182.53 7.648L1174.9 16.144L1177.13 7.648L1182.53 7.648Z" fill="#0E243A"/>
</g>
<g opacity="0.2255">
<path opacity="0.2255" d="M929.016 297.304L942.696 295.216L932.904 275.92L929.016 297.304ZM941.688 294.712L929.736 296.512L933.12 277.792L941.688 294.712Z" fill="#0E243A"/>
</g>
<g opacity="0.1251">
<path opacity="0.1251" d="M942.048 295.432L957.096 288.016L932.328 276.28L942.048 295.432ZM955.584 288.016L942.336 294.568L933.768 277.576L955.584 288.016Z" fill="#0E243A"/>
</g>
<g opacity="0.2913">
<path opacity="0.2913" d="M956.448 288.376L968.472 264.976L932.112 276.784L956.448 288.376ZM967.248 266.056L956.16 287.512L933.84 276.928L967.248 266.056Z" fill="#0E243A"/>
</g>
<g opacity="0.7893">
<path opacity="0.7893" d="M933.192 278.872L937.08 221.848L920.016 228.4L933.192 278.872ZM936.432 222.784L932.832 274.912L920.808 228.76L936.432 222.784Z" fill="#0E243A"/>
</g>
<g opacity="0.7612">
<path opacity="0.7612" d="M885.24 342.52L885.312 341.872L855 335.32V339.064L885.24 342.52ZM855.72 336.112L879.12 341.152L855.72 338.488V336.112Z" fill="#0E243A"/>
</g>
<g opacity="0.3186">
<path opacity="0.3186" d="M855.072 284.416L872.424 281.608L857.52 256.408L855.144 270.088L855.072 284.416ZM871.416 281.104L855.72 283.624V270.088L857.808 258.136L871.416 281.104Z" fill="#0E243A"/>
</g>
<g opacity="0.769">
<path opacity="0.769" d="M909.288 335.464L940.896 333.52L926.568 307.96L909.288 335.464ZM939.816 332.872L910.44 334.672L926.424 309.112L939.816 332.872Z" fill="#0E243A"/>
</g>
<g opacity="0.7914">
<path opacity="0.7914" d="M940.536 333.376L965.16 306.808L963.36 305.512L940.104 332.944L940.536 333.376ZM964.224 306.952L950.04 322.288L963.504 306.448L964.224 306.952Z" fill="#0E243A"/>
</g>
<g opacity="0.7235">
<path opacity="0.7235" d="M987.624 275.992L998.928 263.608L981.144 268.144L987.624 275.992ZM996.984 264.76L987.624 274.984L982.224 268.504L996.984 264.76Z" fill="#0E243A"/>
</g>
<g opacity="0.1424">
<path opacity="0.1424" d="M875.952 93.2559L858.168 64.8159L855.144 68.8479V77.0559L875.952 93.2559ZM858.096 65.8959L873.504 90.5199L855.72 76.6239V68.9919L858.096 65.8959Z" fill="#0E243A"/>
</g>
<g opacity="0.3504">
<path opacity="0.3504" d="M1093.75 136.024L1113.12 106.576L1088.06 117.448L1093.75 136.024ZM1111.46 108.016L1093.97 134.584L1088.86 117.88L1111.46 108.016Z" fill="#0E243A"/>
</g>
<g opacity="0.5955">
<path opacity="0.5955" d="M1088.5 118.024L1112.47 107.656L1112.26 107.08L1082.88 114.784L1088.5 118.024ZM1108.37 108.664L1088.5 117.304L1084.46 114.928L1108.37 108.664Z" fill="#0E243A"/>
</g>
<g opacity="0.8014">
<path opacity="0.8014" d="M986.832 61.5761L1008.43 61.1441L1002.6 54.6641L986.832 61.5761ZM1007.06 60.4961L990 60.8561L1002.46 55.3841L1007.06 60.4961Z" fill="#0E243A"/>
</g>
<g opacity="0.38">
<path opacity="0.38" d="M1008 61.504L1011.96 31.48L1002.24 55.024L1008 61.504ZM1010.66 36.232L1007.5 60.136L1002.89 55.024L1010.66 36.232Z" fill="#0E243A"/>
</g>
<g opacity="0.9285">
<path opacity="0.9285" d="M970.632 186.136L966.6 167.848L964.728 177.136L970.632 186.136ZM966.672 170.872L969.336 182.824L965.52 176.92L966.672 170.872Z" fill="#0E243A"/>
</g>
<g opacity="0.9356">
<path opacity="0.9356" d="M937.008 222.496L970.344 184.48L965.088 176.416L936.504 222.136L937.008 222.496ZM969.552 184.48L939.096 219.184L965.088 177.568L969.552 184.48Z" fill="#0E243A"/>
</g>
</g>
</svg>
